# xmcd
#
# Track frame offsets: 
#        150
#        32173
#        70629
#        125066
#        131390
#        185393
#        227756
#        238344
#        277768
#
# Disc length: 3937 seconds
#
# Revision: 0
# Processed by: cddbd v1.5.2PL0 Copyright (c) Steve Scherf et al.
# Submitted via: ExactAudioCopy v0.95a5
#
DISCID=790f5f09
DTITLE=Eric Burdon and Brian Auger Band - Access All Areas cd2
DYEAR=1993
DGENRE=Blues
TTITLE0=River Deep Mountain High
TTITLE1=Bring It On Home To Me
TTITLE2=No More Elmore James
TTITLE3=Band Intro For Eric
TTITLE4=Tobacco Road
TTITLE5=Sky Pilot
TTITLE6=Rising Sun Guitar Intro
TTITLE7=House of the Rising Sun
TTITLE8=Sixteen Tons
EXTD=
EXTT0=
EXTT1=
EXTT2=
EXTT3=
EXTT4=
EXTT5=
EXTT6=
EXTT7=
EXTT8=
PLAYORDER=
